<?xml version="1.0" encoding="utf-8"?>
<!-- Generator: Adobe Illustrator 16.0.4, SVG Export Plug-In . SVG Version: 6.00 Build 0)  -->
<!DOCTYPE svg PUBLIC "-//W3C//DTD SVG 1.1//EN" "http://www.w3.org/Graphics/SVG/1.1/DTD/svg11.dtd">
<svg version="1.1" id="Layer_1" xmlns="http://www.w3.org/2000/svg" xmlns:xlink="http://www.w3.org/1999/xlink" x="0px" y="0px"
	 width="200px" height="100px" viewBox="0 0 200 100" enable-background="new 0 0 200 100" xml:space="preserve">
<defs  xmlns="http://www.w3.org/1999/xhtml">
	<style  type="text/css">
		<![CDATA[
#panel { display: grid; grid-gap: 10px 10px; margin: 20px; }
#panel button { align-self: center; margin: auto; }
.vis { border-style: solid; border-width: 5px; border-color: rgb(255, 255, 255); }
.selected { border-color: crimson; }
.vis:hover { border-style: solid; border-width: 5px; border-color: rgb(51, 51, 51); }
#prompt { color: gray; }
#prompt span { color: black; }
			]]>
	</style>
</defs>
<path fill="#333333" d="M0,100c1.333,0,2.667,0,4,0s2.667,0,4,0s2.667-0.002,4-0.005c1.333-0.004,2.667-0.014,4-0.041
	s2.667-0.072,4-0.215s2.667-0.322,4-0.81c1.333-0.488,2.667-1.14,4-2.119s2.667-2.414,4-3.751c1.333-1.338,2.667-3.089,4-4.275
	c1.333-1.185,2.667-2.179,4-2.837c1.333-0.658,2.667-0.68,4-1.113c1.333-0.434,2.667-0.641,4-1.487s2.667-2.199,4-3.59
	s2.667-3.437,4-4.754c1.333-1.318,2.667-3.151,4-3.151s2.667,0.15,4,0.45s2.667,2.637,4,2.759s2.667,0.183,4,0.183
	s2.667-3.668,4-7.299s2.667-9.592,4-14.487s2.667-11.121,4-14.881s2.667-7.511,4-7.68s2.667-0.084,4-0.254s2.667-0.295,4-0.884
	c1.333-0.59,2.667-4.916,4-8.581c1.333-3.666,2.667-9.884,4-13.414S106.667,0,108,0s2.667,1.755,4,5.265s2.667,10.206,4,16.09
	s2.667,13.33,4,19.219c1.333,5.889,2.667,11.722,4,16.117c1.333,4.395,2.667,7.814,4,10.251s2.667,3.872,4,4.372
	c1.333,0.5,2.667,0.551,4,0.75s2.667,0.147,4,0.442s2.667,1.31,4,2.69s2.667,3.483,4,5.594c1.333,2.111,2.667,4.869,4,7.07
	s2.667,4.487,4,6.135c1.333,1.647,2.667,2.855,4,3.751s2.667,1.292,4,1.625c1.333,0.333,2.667,0.432,4,0.499s2.667,0.101,4,0.101
	s2.667-0.012,4-0.037c1.333-0.024,2.667-0.079,4-0.236s2.667-0.356,4-0.735c1.333-0.379,2.667-0.941,4-1.537s2.667-1.472,4-2.037
	c1.333-0.564,2.667-1.348,4-1.348s2.667,0.202,4,0.403V100c-1.333,0-2.667,0-4,0s-2.667,0-4,0s-2.667,0-4,0s-2.667,0-4,0
	s-2.667,0-4,0s-2.667,0-4,0s-2.667,0-4,0s-2.667,0-4,0s-2.667,0-4,0s-2.667,0-4,0s-2.667,0-4,0s-2.667,0-4,0s-2.667,0-4,0
	s-2.667,0-4,0s-2.667,0-4,0s-2.667,0-4,0s-2.667,0-4,0s-2.667,0-4,0s-2.667,0-4,0s-2.667,0-4,0s-2.667,0-4,0s-2.667,0-4,0
	s-2.667,0-4,0s-2.667,0-4,0s-2.667,0-4,0s-2.667,0-4,0s-2.667,0-4,0s-2.667,0-4,0s-2.667,0-4,0s-2.667,0-4,0s-2.667,0-4,0
	s-2.667,0-4,0s-2.667,0-4,0s-2.667,0-4,0s-2.667,0-4,0s-2.667,0-4,0s-2.667,0-4,0s-2.667,0-4,0s-2.667,0-4,0s-2.667,0-4,0
	s-2.667,0-4,0s-2.667,0-4,0s-2.667,0-4,0s-2.667,0-4,0s-2.667,0-4,0s-2.667,0-4,0s-2.667,0-4,0s-2.667,0-4,0s-2.667,0-4,0
	S1.333,100,0,100z"/>
</svg>
