<?xml version="1.0" standalone="no"?><!DOCTYPE svg PUBLIC "-//W3C//DTD SVG 1.1//EN" "http://www.w3.org/Graphics/SVG/1.1/DTD/svg11.dtd"><svg style="height: 100px; width: 200px;" id="gapDens" version="1.1" xmlns="http://www.w3.org/2000/svg" xmlns:xlink="http://www.w3.org/1999/xlink"><defs xmlns="http://www.w3.org/1999/xhtml"><style type="text/css"><![CDATA[
#panel { display: grid; grid-gap: 10px 10px; margin: 20px; }
#panel button { align-self: center; margin: auto; }
.vis { border-style: solid; border-width: 5px; border-color: rgb(255, 255, 255); }
.selected { border-color: crimson; }
.vis:hover { border-style: solid; border-width: 5px; border-color: rgb(51, 51, 51); }
#prompt { color: gray; }
#prompt span { color: black; }
.fig { display: flex; flex-wrap: wrap; width: 50%; margin: auto; justify-content: center; }
.figImg { width: 30%; }
.figCaption { font-size: 85%; align-self: center; }
input[type="submit"], button { background-color: rgb(51, 51, 51); border: none; color: white; padding: 5px 8px; text-align: center; text-decoration: none; display: inline-block; border-radius: 4px; font-size: 16px; }
input[type="submit"]:disabled, button:disabled { background-color: rgb(221, 221, 221); }
input[type="submit"]:hover:enabled, button:hover:enabled { background-color: rgb(85, 85, 85); }]]></style></defs><path fill="#333" d="M0,100C1.3333333333333333,100,2.666666666666667,100,4,100C5.333333333333333,100,6.666666666666667,100,8,100C9.333333333333334,100,10.666666666666666,99.99999999999994,12,99.99999999999984C13.333333333333334,99.99999999999974,14.666666666666666,99.99999999999547,16,99.99999999998673C17.333333333333332,99.99999999997799,18.666666666666668,99.99999999970962,20,99.99999999915538C21.333333333333332,99.99999999860114,22.666666666666668,99.9999999864785,24,99.99999996112473C25.333333333333336,99.99999993577096,26.666666666666668,99.99999954237467,28.000000000000004,99.99999870487456C29.333333333333336,99.99999786737445,30.666666666666668,99.99998871606016,32,99.99996873843138C33.333333333333336,99.9999487608026,34.666666666666664,99.99979666422077,36,99.99945251579955C37.333333333333336,99.99910836737833,38.666666666666664,99.9973116692755,40,99.9930299762274C41.333333333333336,99.9887482831793,42.666666666666664,99.97379343279452,44,99.93532034592874C45.333333333333336,99.89684725906297,46.666666666666664,99.81050598082082,48,99.56087725060499C49.333333333333336,99.31124852038916,50.666666666666664,98.97649688539217,52,97.80773615496653C53.333333333333336,96.6389754245409,54.66666666666667,95.26148501471111,56.00000000000001,91.89670599561374C57.333333333333336,88.53192697651637,58.66666666666667,84.06303820512186,60,77.61906204038235C61.333333333333336,71.17508587564282,62.666666666666664,62.042195432593545,64,53.232849007176625C65.33333333333333,44.423502581759706,66.66666666666667,32.90775941662689,68,24.762983487880803C69.33333333333333,16.618207559134717,70.66666666666667,7.273655724500164,72,4.364193434700098C73.33333333333333,1.454731144900033,74.66666666666667,0,76,0C77.33333333333333,0,78.66666666666667,5.120807780916323,80,8.524436030265264C81.33333333333333,11.928064279614205,82.66666666666667,17.096614356049983,84,20.421769496093646C85.33333333333333,23.746924636137308,86.66666666666667,26.665448208662905,88,28.47536687052724C89.33333333333333,30.285285532391573,90.66666666666667,30.965667638039246,92,31.281281467279655C93.33333333333333,31.596895296520064,94.66666666666667,31.43908838189986,96,31.75470221114027C97.33333333333333,32.07031604038068,98.66666666666667,32.593613866807296,100,33.793436112163505C101.33333333333333,34.993258357519714,102.66666666666667,37.15312347600903,104,38.95363568327753C105.33333333333333,40.75414789054604,106.66666666666667,43.70205450785661,108,44.596509355774536C109.33333333333334,45.490964203692464,110.66666666666667,45.93819162765143,112.00000000000001,45.93819162765143C113.33333333333334,45.93819162765143,114.66666666666666,43.330707147944594,115.99999999999999,42.097424340532775C117.33333333333333,40.86414153312094,118.66666666666666,38.538494783180475,120,38.538494783180475C121.33333333333333,38.538494783180475,122.66666666666667,39.32774457472287,124,40.90624415780767C125.33333333333333,42.48474374089247,126.66666666666667,46.018255460646294,128,48.75020417722017C129.33333333333334,51.482152893794044,130.66666666666666,54.928404080455685,132,57.297936457250906C133.33333333333334,59.667468834046126,134.66666666666666,61.50275405715996,136,62.967398437991484C137.33333333333334,64.432042818823,138.66666666666666,64.95945510482206,140,66.08580274224003C141.33333333333334,67.21215037965801,142.66666666666666,68.11164392242273,144,69.72548426249935C145.33333333333334,71.33932460257597,146.66666666666666,73.65432721429707,148,75.76884478269974C149.33333333333334,77.88336235110242,150.66666666666666,80.53402498336078,152,82.41258967291543C153.33333333333334,84.29115436247008,154.66666666666666,85.79528363992392,156,87.04023292002765C157.33333333333334,88.28518220013137,158.66666666666666,88.9386086527442,160,89.88228535353774C161.33333333333334,90.82596205433128,162.66666666666666,91.71706596348794,164,92.70229312478891C165.33333333333334,93.68752028608988,166.66666666666666,94.87900376440899,168,95.79364832134353C169.33333333333334,96.70829287827806,170.66666666666666,97.58373313100883,172,98.19016046639611C173.33333333333334,98.79658780178339,174.66666666666666,99.15206040320074,176,99.43221233366718C177.33333333333334,99.71236426413363,178.66666666666666,99.7992145698454,180,99.8710720491948C181.33333333333334,99.94292952854418,182.66666666666666,99.96643168546787,184,99.97885826821889C185.33333333333334,99.9912848509699,186.66666666666666,99.99597264282757,188,99.9974981423454C189.33333333333334,99.99902364186325,190.66666666666666,99.99965275778959,192,99.99978639162217C193.33333333333334,99.99992002545474,194.66666666666666,99.99997846041659,196,99.99998684237103C197.33333333333334,99.99999522432547,198.66666666666666,99.99999731981409,200,99.9999994153027L200,100C198.66666666666666,100,197.33333333333334,100,196,100C194.66666666666666,100,193.33333333333334,100,192,100C190.66666666666666,100,189.33333333333334,100,188,100C186.66666666666666,100,185.33333333333334,100,184,100C182.66666666666666,100,181.33333333333334,100,180,100C178.66666666666666,100,177.33333333333334,100,176,100C174.66666666666666,100,173.33333333333334,100,172,100C170.66666666666666,100,169.33333333333334,100,168,100C166.66666666666666,100,165.33333333333334,100,164,100C162.66666666666666,100,161.33333333333334,100,160,100C158.66666666666666,100,157.33333333333334,100,156,100C154.66666666666666,100,153.33333333333334,100,152,100C150.66666666666666,100,149.33333333333334,100,148,100C146.66666666666666,100,145.33333333333334,100,144,100C142.66666666666666,100,141.33333333333334,100,140,100C138.66666666666666,100,137.33333333333334,100,136,100C134.66666666666666,100,133.33333333333334,100,132,100C130.66666666666666,100,129.33333333333334,100,128,100C126.66666666666667,100,125.33333333333333,100,124,100C122.66666666666667,100,121.33333333333333,100,120,100C118.66666666666666,100,117.33333333333333,100,115.99999999999999,100C114.66666666666666,100,113.33333333333334,100,112.00000000000001,100C110.66666666666667,100,109.33333333333334,100,108,100C106.66666666666667,100,105.33333333333333,100,104,100C102.66666666666667,100,101.33333333333333,100,100,100C98.66666666666667,100,97.33333333333333,100,96,100C94.66666666666667,100,93.33333333333333,100,92,100C90.66666666666667,100,89.33333333333333,100,88,100C86.66666666666667,100,85.33333333333333,100,84,100C82.66666666666667,100,81.33333333333333,100,80,100C78.66666666666667,100,77.33333333333333,100,76,100C74.66666666666667,100,73.33333333333333,100,72,100C70.66666666666667,100,69.33333333333333,100,68,100C66.66666666666667,100,65.33333333333333,100,64,100C62.666666666666664,100,61.333333333333336,100,60,100C58.66666666666667,100,57.333333333333336,100,56.00000000000001,100C54.66666666666667,100,53.333333333333336,100,52,100C50.666666666666664,100,49.333333333333336,100,48,100C46.666666666666664,100,45.333333333333336,100,44,100C42.666666666666664,100,41.333333333333336,100,40,100C38.666666666666664,100,37.333333333333336,100,36,100C34.666666666666664,100,33.333333333333336,100,32,100C30.666666666666668,100,29.333333333333336,100,28.000000000000004,100C26.666666666666668,100,25.333333333333336,100,24,100C22.666666666666668,100,21.333333333333332,100,20,100C18.666666666666668,100,17.333333333333332,100,16,100C14.666666666666666,100,13.333333333333334,100,12,100C10.666666666666666,100,9.333333333333334,100,8,100C6.666666666666667,100,5.333333333333333,100,4,100C2.666666666666667,100,1.3333333333333333,100,0,100Z"/></svg>