<?xml version="1.0" standalone="no"?><!DOCTYPE svg PUBLIC "-//W3C//DTD SVG 1.1//EN" "http://www.w3.org/Graphics/SVG/1.1/DTD/svg11.dtd"><svg style="width: 200px; height: 100px;" version="1.1" xmlns="http://www.w3.org/2000/svg" xmlns:xlink="http://www.w3.org/1999/xlink"><defs xmlns="http://www.w3.org/1999/xhtml"><style type="text/css"><![CDATA[
#panel { display: grid; grid-gap: 10px 10px; margin: 20px; }
#panel button { align-self: center; margin: auto; }
.vis { border-style: solid; border-width: 5px; border-color: rgb(255, 255, 255); }
.selected { border-color: crimson; }
.vis:hover { border-style: solid; border-width: 5px; border-color: rgb(51, 51, 51); }
#prompt { color: gray; }
#prompt span { color: black; }]]></style></defs><rect x="0" y="100" fill="#333" height="0" width="15"/><rect x="14" y="100" fill="#333" height="0" width="15"/><rect x="28" y="86.66666666666667" fill="#333" height="13.333333333333329" width="15"/><rect x="42" y="86.66666666666667" fill="#333" height="13.333333333333329" width="15"/><rect x="57" y="73.33333333333333" fill="#333" height="26.66666666666667" width="15"/><rect x="71" y="66.66666666666667" fill="#333" height="33.33333333333333" width="15"/><rect x="85" y="40" fill="#333" height="60" width="15"/><rect x="100" y="0" fill="#333" height="100" width="15"/><rect x="114" y="60" fill="#333" height="40" width="15"/><rect x="128" y="73.33333333333333" fill="#333" height="26.66666666666667" width="15"/><rect x="142" y="86.66666666666667" fill="#333" height="13.333333333333329" width="15"/><rect x="157" y="100" fill="#333" height="0" width="15"/><rect x="171" y="100" fill="#333" height="0" width="15"/><rect x="185" y="93.33333333333333" fill="#333" height="6.666666666666671" width="15"/><rect x="200" y="100" fill="#333" height="0" width="15"/></svg>