<?xml version="1.0" encoding="utf-8"?>
<!-- Generator: Adobe Illustrator 16.0.4, SVG Export Plug-In . SVG Version: 6.00 Build 0)  -->
<!DOCTYPE svg PUBLIC "-//W3C//DTD SVG 1.1//EN" "http://www.w3.org/Graphics/SVG/1.1/DTD/svg11.dtd">
<svg version="1.1" id="normalDens" xmlns="http://www.w3.org/2000/svg" xmlns:xlink="http://www.w3.org/1999/xlink" x="0px" y="0px"
	 width="200px" height="100px" viewBox="0 0 200 100" enable-background="new 0 0 200 100" xml:space="preserve">
<defs  xmlns="http://www.w3.org/1999/xhtml">
	<style  type="text/css">
		<![CDATA[
#panel { display: grid; grid-gap: 10px 10px; margin: 20px; }
#panel button { align-self: center; margin: auto; }
.vis { border-style: solid; border-width: 5px; border-color: rgb(255, 255, 255); }
.selected { border-color: crimson; }
.vis:hover { border-style: solid; border-width: 5px; border-color: rgb(51, 51, 51); }
#prompt { color: gray; }
#prompt span { color: black; }
.fig { display: flex; flex-wrap: wrap; width: 50%; margin: auto; justify-content: center; }
.figImg { width: 30%; }
.figCaption { font-size: 85%; align-self: center; }
input[type="submit"], button { background-color: rgb(51, 51, 51); border: none; color: white; padding: 5px 8px; text-align: center; text-decoration: none; display: inline-block; border-radius: 4px; font-size: 16px; }
input[type="submit"]:disabled, button:disabled { background-color: rgb(221, 221, 221); }
input[type="submit"]:hover:enabled, button:hover:enabled { background-color: rgb(85, 85, 85); }
			]]>
	</style>
</defs>
<path fill="#333333" d="M0,100c1.333,0,2.667,0,4-0.001c1.333-0.001,2.667-0.003,4-0.01s2.667-0.022,4-0.065
	c1.333-0.044,2.667-0.108,4-0.325s2.667-0.464,4-1.168s2.667-1.576,4-3.056c1.333-1.48,2.667-3.516,4-5.824
	c1.333-2.309,2.667-5.403,4-8.028s2.667-5.684,4-7.722c1.333-2.038,2.667-4.273,4-4.505s2.667-0.348,4-0.348s2.667,1.546,4,2.114
	c1.333,0.568,2.667,1.295,4,1.295s2.667-1.238,4-3.716s2.667-7.002,4-12.671s2.667-14.07,4-21.342
	c1.333-7.272,2.667-16.517,4-22.288S70.667,0,72,0s2.667,0.758,4,2.274c1.333,1.517,2.667,7.778,4,11.872s2.667,9.255,4,12.69
	s2.667,6.154,4,7.923c1.333,1.768,2.667,2.386,4,2.688s2.667,0.151,4,0.453s2.667,0.766,4,1.858c1.333,1.092,2.667,3.057,4,4.695
	s2.667,4.321,4,5.135c1.333,0.813,2.667,1.221,4,1.221s2.667-2.373,4-3.495c1.333-1.122,2.667-3.238,4-3.238s2.667,0.718,4,2.155
	c1.333,1.436,2.667,4.651,4,7.137s2.667,5.622,4,7.777s2.667,3.827,4,5.157s2.667,1.815,4,2.824c1.333,1.009,2.667,1.833,4,3.23
	c1.333,1.398,2.667,3.457,4,5.155s2.667,3.827,4,5.035c1.333,1.207,2.667,2.134,4,2.21s2.667,0.038,4,0.114s2.667,0.385,4,1.156
	s2.667,2.245,4,3.596s2.667,3.193,4,4.51s2.667,2.541,4,3.389s2.667,1.32,4,1.703s2.667,0.498,4,0.597
	c1.333,0.099,2.667,0.131,4,0.148s2.667,0.024,4,0.026c1.333,0.002,2.667,0.003,4,0.003c1.333,0,2.667,0,4,0l0,0
	c-1.333,0-2.667,0-4,0s-2.667,0-4,0s-2.667,0-4,0s-2.667,0-4,0s-2.667,0-4,0s-2.667,0-4,0s-2.667,0-4,0s-2.667,0-4,0s-2.667,0-4,0
	s-2.667,0-4,0s-2.667,0-4,0s-2.667,0-4,0s-2.667,0-4,0s-2.667,0-4,0s-2.667,0-4,0s-2.667,0-4,0s-2.667,0-4,0s-2.667,0-4,0
	s-2.667,0-4,0s-2.667,0-4,0s-2.667,0-4,0s-2.667,0-4,0s-2.667,0-4,0s-2.667,0-4,0s-2.667,0-4,0s-2.667,0-4,0s-2.667,0-4,0
	s-2.667,0-4,0s-2.667,0-4,0s-2.667,0-4,0s-2.667,0-4,0s-2.667,0-4,0s-2.667,0-4,0s-2.667,0-4,0s-2.667,0-4,0s-2.667,0-4,0
	s-2.667,0-4,0s-2.667,0-4,0s-2.667,0-4,0s-2.667,0-4,0s-2.667,0-4,0s-2.667,0-4,0s-2.667,0-4,0s-2.667,0-4,0s-2.667,0-4,0
	s-2.667,0-4,0s-2.667,0-4,0s-2.667,0-4,0s-2.667,0-4,0S1.333,100,0,100L0,100z"/>
</svg>
