<?xml version="1.0" encoding="utf-8"?>
<!-- Generator: Adobe Illustrator 16.0.4, SVG Export Plug-In . SVG Version: 6.00 Build 0)  -->
<!DOCTYPE svg PUBLIC "-//W3C//DTD SVG 1.1//EN" "http://www.w3.org/Graphics/SVG/1.1/DTD/svg11.dtd">
<svg version="1.1" id="Layer_1" xmlns="http://www.w3.org/2000/svg" xmlns:xlink="http://www.w3.org/1999/xlink" x="0px" y="0px"
	 width="200px" height="100px" viewBox="0 0 200 100" enable-background="new 0 0 200 100" xml:space="preserve">
<defs  xmlns="http://www.w3.org/1999/xhtml">
	<style  type="text/css">
		<![CDATA[
#panel { display: grid; grid-gap: 10px 10px; margin: 20px; }
#panel button { align-self: center; margin: auto; }
.vis { border-style: solid; border-width: 5px; border-color: rgb(255, 255, 255); }
.selected { border-color: crimson; }
.vis:hover { border-style: solid; border-width: 5px; border-color: rgb(51, 51, 51); }
#prompt { color: gray; }
#prompt span { color: black; }
			]]>
	</style>
</defs>
<circle opacity="0.15" fill="#333333" enable-background="new    " cx="38.648" cy="50" r="10"/>
<circle opacity="0.15" fill="#333333" enable-background="new    " cx="40.364" cy="50" r="10"/>
<circle opacity="0.15" fill="#333333" enable-background="new    " cx="51.556" cy="50" r="10"/>
<circle opacity="0.15" fill="#333333" enable-background="new    " cx="56.237" cy="50" r="10"/>
<circle opacity="0.15" fill="#333333" enable-background="new    " cx="60.474" cy="50" r="10"/>
<circle opacity="0.15" fill="#333333" enable-background="new    " cx="61.832" cy="50" r="10"/>
<circle opacity="0.15" fill="#333333" enable-background="new    " cx="64.757" cy="50" r="10"/>
<circle opacity="0.15" fill="#333333" enable-background="new    " cx="68.369" cy="50" r="10"/>
<circle opacity="0.15" fill="#333333" enable-background="new    " cx="79.828" cy="50" r="10"/>
<circle opacity="0.15" fill="#333333" enable-background="new    " cx="81.069" cy="50" r="10"/>
<circle opacity="0.15" fill="#333333" enable-background="new    " cx="83.365" cy="50" r="10"/>
<circle opacity="0.15" fill="#333333" enable-background="new    " cx="84.702" cy="50" r="10"/>
<circle opacity="0.15" fill="#333333" enable-background="new    " cx="84.983" cy="50" r="10"/>
<circle opacity="0.15" fill="#333333" enable-background="new    " cx="88.006" cy="50" r="10"/>
<circle opacity="0.15" fill="#333333" enable-background="new    " cx="88.207" cy="50" r="10"/>
<circle opacity="0.15" fill="#333333" enable-background="new    " cx="88.562" cy="50" r="10"/>
<circle opacity="0.15" fill="#333333" enable-background="new    " cx="89.575" cy="50" r="10"/>
<circle opacity="0.15" fill="#333333" enable-background="new    " cx="89.634" cy="50" r="10"/>
<circle opacity="0.15" fill="#333333" enable-background="new    " cx="89.753" cy="50" r="10"/>
<circle opacity="0.15" fill="#333333" enable-background="new    " cx="94.25" cy="50" r="10"/>
<circle opacity="0.15" fill="#333333" enable-background="new    " cx="98.698" cy="50" r="10"/>
<circle opacity="0.15" fill="#333333" enable-background="new    " cx="99.325" cy="50" r="10"/>
<circle opacity="0.15" fill="#333333" enable-background="new    " cx="101.543" cy="50" r="10"/>
<circle opacity="0.15" fill="#333333" enable-background="new    " cx="102.514" cy="50" r="10"/>
<circle opacity="0.15" fill="#333333" enable-background="new    " cx="104.373" cy="50" r="10"/>
<circle opacity="0.15" fill="#333333" enable-background="new    " cx="104.577" cy="50" r="10"/>
<circle opacity="0.15" fill="#333333" enable-background="new    " cx="106.924" cy="50" r="10"/>
<circle opacity="0.15" fill="#333333" enable-background="new    " cx="107.145" cy="50" r="10"/>
<circle opacity="0.15" fill="#333333" enable-background="new    " cx="108.072" cy="50" r="10"/>
<circle opacity="0.15" fill="#333333" enable-background="new    " cx="108.531" cy="50" r="10"/>
<circle opacity="0.15" fill="#333333" enable-background="new    " cx="108.614" cy="50" r="10"/>
<circle opacity="0.15" fill="#333333" enable-background="new    " cx="108.734" cy="50" r="10"/>
<circle opacity="0.15" fill="#333333" enable-background="new    " cx="108.961" cy="50" r="10"/>
<circle opacity="0.15" fill="#333333" enable-background="new    " cx="110.751" cy="50" r="10"/>
<circle opacity="0.15" fill="#333333" enable-background="new    " cx="110.99" cy="50" r="10"/>
<circle opacity="0.15" fill="#333333" enable-background="new    " cx="111.996" cy="50" r="10"/>
<circle opacity="0.15" fill="#333333" enable-background="new    " cx="112.729" cy="50" r="10"/>
<circle opacity="0.15" fill="#333333" enable-background="new    " cx="115.536" cy="50" r="10"/>
<circle opacity="0.15" fill="#333333" enable-background="new    " cx="116.825" cy="50" r="10"/>
<circle opacity="0.15" fill="#333333" enable-background="new    " cx="118.891" cy="50" r="10"/>
<circle opacity="0.15" fill="#333333" enable-background="new    " cx="119.176" cy="50" r="10"/>
<circle opacity="0.15" fill="#333333" enable-background="new    " cx="122.406" cy="50" r="10"/>
<circle opacity="0.15" fill="#333333" enable-background="new    " cx="124.282" cy="50" r="10"/>
<circle opacity="0.15" fill="#333333" enable-background="new    " cx="130.726" cy="50" r="10"/>
<circle opacity="0.15" fill="#333333" enable-background="new    " cx="134.649" cy="50" r="10"/>
<circle opacity="0.15" fill="#333333" enable-background="new    " cx="139.482" cy="50" r="10"/>
<circle opacity="0.15" fill="#333333" enable-background="new    " cx="139.968" cy="50" r="10"/>
<circle opacity="0.15" fill="#333333" enable-background="new    " cx="146.757" cy="50" r="10"/>
<circle opacity="0.15" fill="#333333" enable-background="new    " cx="146.918" cy="50" r="10"/>
<circle opacity="0.15" fill="#333333" enable-background="new    " cx="197.142" cy="50" r="10"/>
</svg>
