<?xml version="1.0" standalone="no"?><!DOCTYPE svg PUBLIC "-//W3C//DTD SVG 1.1//EN" "http://www.w3.org/Graphics/SVG/1.1/DTD/svg11.dtd"><svg style="width: 200px; height: 100px;" version="1.1" xmlns="http://www.w3.org/2000/svg" xmlns:xlink="http://www.w3.org/1999/xlink"><defs xmlns="http://www.w3.org/1999/xhtml"><style type="text/css"><![CDATA[
#panel { display: grid; grid-gap: 10px 10px; margin: 20px; }
#panel button { align-self: center; margin: auto; }
.vis { border-style: solid; border-width: 5px; border-color: rgb(255, 255, 255); }
.selected { border-color: crimson; }
.vis:hover { border-style: solid; border-width: 5px; border-color: rgb(51, 51, 51); }
#prompt { color: gray; }
#prompt span { color: black; }]]></style></defs><circle fill="#333" r="10" cx="38.648332976571744" cy="50" opacity="0.15"/><circle fill="#333" r="10" cx="40.36420869564367" cy="50" opacity="0.15"/><circle fill="#333" r="10" cx="51.55585987303615" cy="50" opacity="0.15"/><circle fill="#333" r="10" cx="56.23724893620889" cy="50" opacity="0.15"/><circle fill="#333" r="10" cx="60.47348173987481" cy="50" opacity="0.15"/><circle fill="#333" r="10" cx="61.83163571546822" cy="50" opacity="0.15"/><circle fill="#333" r="10" cx="64.75698013766258" cy="50" opacity="0.15"/><circle fill="#333" r="10" cx="68.36863689002638" cy="50" opacity="0.15"/><circle fill="#333" r="10" cx="79.8274798422549" cy="50" opacity="0.15"/><circle fill="#333" r="10" cx="81.06945826972527" cy="50" opacity="0.15"/><circle fill="#333" r="10" cx="83.36474595811973" cy="50" opacity="0.15"/><circle fill="#333" r="10" cx="84.70225093824071" cy="50" opacity="0.15"/><circle fill="#333" r="10" cx="84.98356034714332" cy="50" opacity="0.15"/><circle fill="#333" r="10" cx="88.00617760809156" cy="50" opacity="0.15"/><circle fill="#333" r="10" cx="88.20679968853807" cy="50" opacity="0.15"/><circle fill="#333" r="10" cx="88.56130450370692" cy="50" opacity="0.15"/><circle fill="#333" r="10" cx="89.57521867247095" cy="50" opacity="0.15"/><circle fill="#333" r="10" cx="89.63359196556854" cy="50" opacity="0.15"/><circle fill="#333" r="10" cx="89.7533098070701" cy="50" opacity="0.15"/><circle fill="#333" r="10" cx="94.25014737161412" cy="50" opacity="0.15"/><circle fill="#333" r="10" cx="98.6977018945591" cy="50" opacity="0.15"/><circle fill="#333" r="10" cx="99.32530430810161" cy="50" opacity="0.15"/><circle fill="#333" r="10" cx="101.54309871488142" cy="50" opacity="0.15"/><circle fill="#333" r="10" cx="102.51361303738902" cy="50" opacity="0.15"/><circle fill="#333" r="10" cx="104.37236495700672" cy="50" opacity="0.15"/><circle fill="#333" r="10" cx="104.57723025335342" cy="50" opacity="0.15"/><circle fill="#333" r="10" cx="106.92438320278062" cy="50" opacity="0.15"/><circle fill="#333" r="10" cx="107.14511214475044" cy="50" opacity="0.15"/><circle fill="#333" r="10" cx="108.07215921602263" cy="50" opacity="0.15"/><circle fill="#333" r="10" cx="108.53140903691623" cy="50" opacity="0.15"/><circle fill="#333" r="10" cx="108.61392776090169" cy="50" opacity="0.15"/><circle fill="#333" r="10" cx="108.73372480959628" cy="50" opacity="0.15"/><circle fill="#333" r="10" cx="108.96134167526898" cy="50" opacity="0.15"/><circle fill="#333" r="10" cx="110.75127935159284" cy="50" opacity="0.15"/><circle fill="#333" r="10" cx="110.99038402002125" cy="50" opacity="0.15"/><circle fill="#333" r="10" cx="111.99599465926102" cy="50" opacity="0.15"/><circle fill="#333" r="10" cx="112.72966743846966" cy="50" opacity="0.15"/><circle fill="#333" r="10" cx="115.53636528780302" cy="50" opacity="0.15"/><circle fill="#333" r="10" cx="116.82538997095469" cy="50" opacity="0.15"/><circle fill="#333" r="10" cx="118.89094000684923" cy="50" opacity="0.15"/><circle fill="#333" r="10" cx="119.1763382366692" cy="50" opacity="0.15"/><circle fill="#333" r="10" cx="122.40569209329908" cy="50" opacity="0.15"/><circle fill="#333" r="10" cx="124.2815817434217" cy="50" opacity="0.15"/><circle fill="#333" r="10" cx="130.72546718864945" cy="50" opacity="0.15"/><circle fill="#333" r="10" cx="134.64929649319987" cy="50" opacity="0.15"/><circle fill="#333" r="10" cx="139.4820384681622" cy="50" opacity="0.15"/><circle fill="#333" r="10" cx="139.96771541080116" cy="50" opacity="0.15"/><circle fill="#333" r="10" cx="146.75663238785032" cy="50" opacity="0.15"/><circle fill="#333" r="10" cx="146.9186332274215" cy="50" opacity="0.15"/><circle fill="#333" r="10" cx="197.14192542336036" cy="50" opacity="0.15"/></svg>