<?xml version="1.0" encoding="utf-8"?>
<!-- Generator: Adobe Illustrator 16.0.4, SVG Export Plug-In . SVG Version: 6.00 Build 0)  -->
<!DOCTYPE svg PUBLIC "-//W3C//DTD SVG 1.1//EN" "http://www.w3.org/Graphics/SVG/1.1/DTD/svg11.dtd">
<svg version="1.1" id="spikeDens" xmlns="http://www.w3.org/2000/svg" xmlns:xlink="http://www.w3.org/1999/xlink" x="0px" y="0px"
	 width="200px" height="100px" viewBox="0 0 200 100" enable-background="new 0 0 200 100" xml:space="preserve">
<defs  xmlns="http://www.w3.org/1999/xhtml">
	<style  type="text/css">
		<![CDATA[
#panel { display: grid; grid-gap: 10px 10px; margin: 20px; }
#panel button { align-self: center; margin: auto; }
.vis { border-style: solid; border-width: 5px; border-color: rgb(255, 255, 255); }
.selected { border-color: crimson; }
.vis:hover { border-style: solid; border-width: 5px; border-color: rgb(51, 51, 51); }
#prompt { color: gray; }
#prompt span { color: black; }
.fig { display: flex; flex-wrap: wrap; width: 50%; margin: auto; justify-content: center; }
.figImg { width: 30%; }
.figCaption { font-size: 85%; align-self: center; }
input[type="submit"], button { background-color: rgb(51, 51, 51); border: none; color: white; padding: 5px 8px; text-align: center; text-decoration: none; display: inline-block; border-radius: 4px; font-size: 16px; }
input[type="submit"]:disabled, button:disabled { background-color: rgb(221, 221, 221); }
input[type="submit"]:hover:enabled, button:hover:enabled { background-color: rgb(85, 85, 85); }
			]]>
	</style>
</defs>
<path fill="#333333" d="M0,100c1.333,0,2.667,0,4-0.001s2.667-0.002,4-0.007c1.333-0.005,2.667-0.018,4-0.052s2.667-0.086,4-0.258
	c1.333-0.172,2.667-0.369,4-0.927s2.667-1.251,4-2.426s2.667-2.791,4-4.623c1.333-1.832,2.667-4.288,4-6.371
	c1.333-2.083,2.667-4.512,4-6.129c1.333-1.618,2.667-3.392,4-3.576s2.667-0.276,4-0.276s2.667,1.227,4,1.678
	c1.333,0.451,2.667,1.028,4,1.028s2.667-0.983,4-2.95c1.333-1.966,2.667-5.558,4-10.057s2.667-11.168,4-16.939s2.667-13.109,4-17.69
	s2.667-9.793,4-9.793s2.667,0.602,4,1.805s2.667,6.174,4,9.423c1.333,3.249,2.667,7.348,4,10.07s2.667,4.971,4,6.263
	c1.333,1.292,2.667,1.938,4,1.938s2.667-0.232,4-0.697c1.333-0.464,2.667-0.987,4-2.522c1.333-1.536,2.667-3.258,4-6.689
	c1.333-3.432,2.667-8.671,4-13.899s2.667-13.085,4-17.472C113.333,4.46,114.667,0,116,0s2.667,3.731,4,8.746s2.667,14.205,4,21.342
	s2.667,15.545,4,21.482s2.667,10.649,4,14.137s2.667,5.181,4,6.793c1.333,1.611,2.667,1.952,4,2.876s2.667,1.541,4,2.669
	s2.667,2.754,4,4.104c1.333,1.351,2.667,3.039,4,3.997s2.667,1.694,4,1.754s2.667,0.03,4,0.091c1.333,0.06,2.667,0.306,4,0.917
	c1.333,0.612,2.667,1.782,4,2.854s2.667,2.535,4,3.58s2.667,2.016,4,2.69c1.333,0.673,2.667,1.047,4,1.352
	c1.333,0.304,2.667,0.395,4,0.474s2.667,0.104,4,0.118s2.667,0.019,4,0.021s2.667,0.002,4,0.003c1.333,0,2.667,0,4,0l0,0
	c-1.333,0-2.667,0-4,0s-2.667,0-4,0s-2.667,0-4,0s-2.667,0-4,0s-2.667,0-4,0s-2.667,0-4,0s-2.667,0-4,0s-2.667,0-4,0s-2.667,0-4,0
	s-2.667,0-4,0s-2.667,0-4,0s-2.667,0-4,0s-2.667,0-4,0s-2.667,0-4,0s-2.667,0-4,0s-2.667,0-4,0s-2.667,0-4,0s-2.667,0-4,0
	s-2.667,0-4,0s-2.667,0-4,0s-2.667,0-4,0s-2.667,0-4,0s-2.667,0-4,0s-2.667,0-4,0s-2.667,0-4,0s-2.667,0-4,0s-2.667,0-4,0
	s-2.667,0-4,0s-2.667,0-4,0s-2.667,0-4,0s-2.667,0-4,0s-2.667,0-4,0s-2.667,0-4,0s-2.667,0-4,0s-2.667,0-4,0s-2.667,0-4,0
	s-2.667,0-4,0s-2.667,0-4,0s-2.667,0-4,0s-2.667,0-4,0s-2.667,0-4,0s-2.667,0-4,0s-2.667,0-4,0s-2.667,0-4,0s-2.667,0-4,0
	s-2.667,0-4,0s-2.667,0-4,0s-2.667,0-4,0s-2.667,0-4,0S1.333,100,0,100L0,100z"/>
</svg>
