<?xml version="1.0" encoding="utf-8"?>
<!-- Generator: Adobe Illustrator 16.0.4, SVG Export Plug-In . SVG Version: 6.00 Build 0)  -->
<!DOCTYPE svg PUBLIC "-//W3C//DTD SVG 1.1//EN" "http://www.w3.org/Graphics/SVG/1.1/DTD/svg11.dtd">
<svg version="1.1" id="spikeHist" xmlns="http://www.w3.org/2000/svg" xmlns:xlink="http://www.w3.org/1999/xlink" x="0px" y="0px"
	 width="200px" height="100px" viewBox="0 0 200 100" enable-background="new 0 0 200 100" xml:space="preserve">
<defs  xmlns="http://www.w3.org/1999/xhtml">
	<style  type="text/css">
		<![CDATA[
#panel { display: grid; grid-gap: 10px 10px; margin: 20px; }
#panel button { align-self: center; margin: auto; }
.vis { border-style: solid; border-width: 5px; border-color: rgb(255, 255, 255); }
.selected { border-color: crimson; }
.vis:hover { border-style: solid; border-width: 5px; border-color: rgb(51, 51, 51); }
#prompt { color: gray; }
#prompt span { color: black; }
.fig { display: flex; flex-wrap: wrap; width: 50%; margin: auto; justify-content: center; }
.figImg { width: 30%; }
.figCaption { font-size: 85%; align-self: center; }
input[type="submit"], button { background-color: rgb(51, 51, 51); border: none; color: white; padding: 5px 8px; text-align: center; text-decoration: none; display: inline-block; border-radius: 4px; font-size: 16px; }
input[type="submit"]:disabled, button:disabled { background-color: rgb(221, 221, 221); }
input[type="submit"]:hover:enabled, button:hover:enabled { background-color: rgb(85, 85, 85); }
			]]>
	</style>
</defs>
<polygon fill="#333333" points="0,100 15,100 15,100 "/>
<polygon fill="#333333" points="14,100 29,100 29,100 "/>
<rect x="28" y="76.471" fill="#333333" width="15" height="23.529"/>
<rect x="42" y="88.235" fill="#333333" width="15" height="11.765"/>
<rect x="57" y="58.824" fill="#333333" width="15" height="41.176"/>
<rect x="71" y="35.294" fill="#333333" width="15" height="64.706"/>
<rect x="85" y="58.824" fill="#333333" width="15" height="41.176"/>
<rect x="100" y="70.588" fill="#333333" width="15" height="29.412"/>
<rect x="114" fill="#333333" width="15" height="100"/>
<rect x="128" y="82.353" fill="#333333" width="15" height="17.647"/>
<rect x="142" y="88.235" fill="#333333" width="15" height="11.765"/>
<rect x="157" y="88.235" fill="#333333" width="15" height="11.765"/>
<polygon fill="#333333" points="171,100 186,100 186,100 "/>
<polygon fill="#333333" points="185,100 200,100 200,100 "/>
<polygon fill="#333333" points="200,100 215,100 215,100 "/>
</svg>
